<?xml version="1.0" ?><!DOCTYPE svg  PUBLIC '-//W3C//DTD SVG 1.1//EN'  'http://www.w3.org/Graphics/SVG/1.1/DTD/svg11.dtd'><svg xmlns="http://www.w3.org/2000/svg" xmlns:xlink="http://www.w3.org/1999/xlink"><symbol viewBox="-5 -5 42 42" id="hamburguer-menu" xmlns="http://www.w3.org/2000/svg"><path d="M4 10h24a2 2 0 0 0 0-4H4a2 2 0 0 0 0 4zm24 4H4a2 2 0 0 0 0 4h24a2 2 0 0 0 0-4zm0 8H4a2 2 0 0 0 0 4h24a2 2 0 0 0 0-4z"/></symbol><symbol viewBox="-5 -5 289.85 289.85" id="heart" xmlns="http://www.w3.org/2000/svg"><path d="M255.361 41.839C213.917.386 172.823 18.5 139.928 48.069 107.016 18.5 66.264.062 24.487 41.839c-32.571 32.553-32.728 84.866 0 117.244C139.57 262.605 139.543 262.421 139.543 262.421s.166.341 115.809-103.339c32.746-32.378 32.58-84.69.009-117.243z" fill="#e2574c"/><path d="M139.92 48.06l-.079-.061v214.168c1.846-1.558 15.419-13.345 115.511-103.094 32.737-32.369 32.579-84.682 0-117.235C213.908.386 172.823 18.5 139.92 48.06z" fill="#cb4e44"/></symbol></svg>