<?xml version="1.0" standalone="no"?>
<!DOCTYPE svg PUBLIC "-//W3C//DTD SVG 20010904//EN"
 "http://www.w3.org/TR/2001/REC-SVG-20010904/DTD/svg10.dtd">
<svg version="1.0" xmlns="http://www.w3.org/2000/svg"
 width="700.000000pt" height="700.000000pt" viewBox="0 0 700.000000 700.000000"
 preserveAspectRatio="xMidYMid meet">
<metadata>
Created by potrace 1.11, written by Peter Selinger 2001-2013
</metadata>
<g transform="translate(0.000000,700.000000) scale(0.100000,-0.100000)"
fill="#000000" stroke="none">
<path d="M3469 5658 c-7 -13 -26 -216 -34 -353 -3 -49 -7 -117 -10 -150 -2
-33 -7 -105 -10 -160 -22 -362 -28 -438 -40 -535 -2 -19 -7 -66 -10 -105 -3
-38 -8 -83 -10 -100 -2 -16 -4 -67 -6 -112 l-2 -81 -30 -6 c-17 -3 -31 -5 -33
-4 -3 4 -13 71 -19 129 -3 24 -7 55 -9 69 -3 14 -8 48 -11 75 -13 103 -16 121
-25 175 -5 30 -12 71 -15 90 -3 19 -12 69 -20 110 -7 41 -17 98 -20 125 -13
99 -16 121 -31 205 -9 47 -18 96 -20 110 -2 14 -6 36 -9 50 -3 14 -7 48 -10
75 -3 28 -8 65 -11 83 -2 18 -6 52 -9 75 -3 23 -7 51 -10 62 -2 11 -4 28 -4
38 -1 9 -5 17 -9 17 -11 0 -4 -199 13 -385 9 -99 15 -182 20 -300 12 -259 15
-313 21 -385 8 -90 10 -125 19 -302 7 -133 6 -138 -13 -138 -15 0 -23 12 -35
53 -8 28 -33 108 -55 177 -122 380 -205 643 -297 945 -63 209 -98 310 -102
299 -2 -6 8 -69 23 -140 14 -71 27 -136 29 -144 6 -30 34 -186 40 -220 22
-131 51 -286 77 -415 16 -82 32 -159 34 -170 2 -11 8 -40 14 -65 22 -104 35
-184 45 -300 6 -68 6 -73 -8 -55 -26 36 -73 127 -135 265 -33 74 -92 202 -131
283 -39 82 -71 150 -71 152 0 1 -29 64 -65 139 -36 75 -65 138 -65 140 0 2
-28 62 -61 132 -34 71 -76 162 -95 202 -18 39 -35 72 -37 72 -5 0 6 -36 138
-440 57 -173 151 -463 210 -645 58 -181 111 -341 116 -354 10 -24 3 -43 -9
-25 -21 29 -248 373 -397 599 -160 244 -221 337 -379 580 -36 55 -66 97 -66
93 0 -4 25 -61 56 -125 31 -65 72 -152 91 -193 20 -41 76 -158 124 -259 49
-101 89 -185 89 -187 0 -1 41 -87 91 -191 132 -275 136 -283 164 -347 14 -32
23 -61 21 -63 -2 -2 -115 123 -251 279 -136 156 -271 310 -300 343 -29 33 -72
83 -95 110 -24 28 -46 52 -49 55 -3 3 -60 67 -126 144 -65 76 -137 157 -158
180 l-39 41 28 -45 c143 -230 279 -450 293 -472 9 -15 45 -74 80 -130 311
-496 408 -658 394 -658 -3 0 -31 21 -62 47 -52 44 -88 77 -201 183 -25 23 -82
75 -126 116 -98 89 -104 95 -225 206 -111 102 -128 117 -201 183 -163 149
-244 222 -264 243 -13 12 -26 22 -29 22 -7 0 -22 18 290 -351 132 -156 297
-351 365 -434 68 -82 140 -168 160 -190 32 -37 87 -104 117 -144 7 -9 13 -20
13 -24 0 -19 -73 30 -877 579 -203 138 -369 250 -371 249 -2 -2 64 -67 174
-171 23 -22 113 -107 200 -190 87 -83 178 -168 200 -190 275 -259 438 -417
479 -463 18 -21 16 -21 -45 5 -36 16 -83 38 -105 50 -94 50 -241 127 -390 204
-88 46 -216 112 -285 148 -435 226 -531 272 -426 203 13 -9 120 -84 238 -167
498 -354 789 -564 830 -598 42 -37 42 -37 13 -30 -45 11 -592 193 -1105 369
-245 83 -270 88 -160 28 30 -17 71 -39 90 -50 139 -79 354 -201 400 -226 30
-16 96 -53 145 -82 50 -29 115 -66 145 -83 290 -159 355 -199 358 -221 3 -18
0 -22 -15 -17 -21 6 -182 43 -215 50 -13 2 -61 14 -108 25 -47 11 -96 22 -110
25 -35 6 -277 64 -320 75 -19 6 -46 12 -60 15 -47 8 -215 47 -350 80 -140 35
-219 51 -210 43 3 -2 138 -63 300 -135 162 -72 339 -151 393 -176 54 -25 100
-46 103 -46 2 0 41 -17 87 -38 45 -21 119 -54 164 -73 46 -19 83 -38 83 -43 0
-4 -6 -6 -14 -3 -8 3 -41 9 -73 12 -32 3 -71 8 -88 10 -16 2 -64 7 -105 10
-41 4 -91 9 -110 11 -19 3 -116 8 -215 11 l-180 5 -57 -148 c-32 -82 -60 -156
-63 -165 -5 -14 3 -18 47 -24 29 -4 60 -9 69 -10 8 -2 55 -6 105 -10 49 -4 96
-9 105 -10 8 -2 55 -6 105 -10 49 -4 97 -9 106 -10 9 -2 48 -6 85 -10 37 -3
79 -8 93 -10 14 -2 49 -7 79 -10 30 -4 62 -8 71 -10 9 -2 41 -6 70 -10 29 -4
61 -8 71 -10 9 -2 39 -7 66 -11 26 -5 50 -9 53 -9 3 -1 23 -5 45 -9 77 -14
320 -68 350 -77 17 -5 80 -23 140 -40 337 -93 634 -199 1104 -394 53 -22 97
-24 130 -5 7 4 35 -1 62 -11 27 -11 59 -20 72 -20 12 -1 -1 -5 -30 -9 -112
-16 -216 -97 -274 -211 -16 -32 -27 -59 -25 -59 2 0 -2 -21 -10 -47 -8 -25
-14 -50 -14 -55 0 -4 32 -8 70 -8 39 0 70 4 70 10 0 5 9 33 20 63 52 139 200
199 332 134 60 -30 95 -74 123 -154 l19 -53 67 0 67 0 -10 43 c-5 23 -11 51
-14 62 -9 45 -57 125 -102 169 -52 51 -123 96 -152 96 -39 0 -28 19 20 35 27
9 52 21 55 26 4 5 12 9 18 9 7 0 6 -4 -3 -10 -22 -13 -8 -21 41 -21 39 -1 86
12 154 42 280 122 995 369 1230 424 69 16 358 74 395 79 25 3 60 8 78 10 18 3
52 8 75 11 23 3 49 8 57 10 8 2 40 7 70 10 30 3 73 8 95 10 22 3 78 9 125 15
47 5 114 12 150 15 36 3 83 7 105 9 22 2 101 10 175 17 74 6 138 15 143 19 4
3 -18 79 -50 169 l-58 162 -195 -5 c-107 -3 -211 -7 -230 -10 -19 -2 -71 -7
-114 -11 -43 -4 -87 -8 -97 -10 -78 -15 -203 -21 -264 -12 -22 3 -58 6 -80 6
-38 1 -37 3 45 35 121 48 684 263 880 336 228 84 220 80 220 100 0 16 -5 17
-42 8 -24 -5 -53 -12 -64 -14 -12 -2 -66 -13 -120 -25 -55 -11 -110 -23 -124
-25 -14 -3 -45 -10 -70 -15 -25 -6 -56 -13 -70 -15 -146 -28 -394 -80 -514
-109 -82 -20 -177 -39 -210 -41 l-61 -6 35 25 c35 24 134 81 265 152 39 21 93
50 120 65 62 34 538 297 582 321 57 32 165 91 192 105 14 8 23 14 19 14 -11 0
-169 -47 -203 -60 -16 -7 -185 -65 -375 -130 -190 -65 -399 -137 -465 -159
-134 -46 -304 -95 -311 -88 -5 5 154 120 621 452 395 280 525 375 525 382 0 2
-3 2 -7 0 -29 -15 -243 -116 -468 -222 -38 -18 -115 -54 -170 -80 -55 -26
-201 -94 -325 -152 -124 -58 -255 -119 -292 -137 -38 -18 -68 -30 -68 -26 0 7
119 124 195 191 87 77 128 114 145 129 9 8 52 46 96 84 43 39 84 75 89 80 6 6
44 40 85 76 41 36 80 69 86 75 17 16 149 133 264 235 58 51 112 99 120 107 8
8 -66 -40 -165 -107 -99 -67 -256 -173 -350 -236 -93 -63 -269 -183 -390 -265
-121 -83 -229 -155 -240 -160 -11 -5 -33 -18 -50 -28 -16 -11 -34 -20 -38 -20
-12 -1 92 129 282 355 10 11 91 108 180 215 89 106 170 203 179 214 63 74 278
334 291 350 8 11 -14 -7 -49 -41 -36 -33 -87 -81 -114 -105 -26 -24 -63 -57
-80 -74 -18 -16 -81 -75 -141 -130 -59 -55 -122 -113 -139 -129 -17 -16 -83
-77 -146 -136 -63 -59 -128 -119 -145 -134 -16 -15 -55 -51 -85 -80 -51 -48
-151 -134 -193 -165 -23 -18 63 127 421 714 151 246 287 475 300 500 14 29
-61 -63 -205 -255 -90 -118 -189 -249 -221 -290 -31 -41 -136 -178 -233 -305
-97 -126 -191 -243 -208 -259 l-31 -30 24 70 c25 71 66 174 92 230 13 31 46
110 159 389 76 190 255 625 270 660 16 36 30 82 22 75 -3 -3 -37 -61 -76 -130
-39 -69 -75 -132 -80 -140 -5 -8 -53 -91 -107 -185 -255 -445 -428 -744 -452
-781 -55 -86 -52 -83 -46 -39 8 61 40 192 89 364 34 124 94 349 120 461 2 8
29 103 60 210 50 176 116 432 115 449 -1 3 -26 -52 -56 -124 -30 -71 -59 -139
-64 -150 -5 -11 -64 -150 -130 -310 -67 -159 -127 -303 -135 -320 -7 -16 -53
-124 -101 -240 -48 -115 -101 -228 -117 -250 l-28 -40 5 70 c3 39 12 111 21
160 9 50 18 108 21 130 3 22 9 63 14 90 11 61 56 379 64 455 13 118 18 149 36
250 30 165 49 280 56 340 3 30 9 59 12 64 3 5 0 6 -5 3 -6 -4 -13 -17 -16 -29
-3 -13 -15 -54 -27 -93 -11 -38 -23 -77 -25 -85 -7 -34 -110 -398 -208 -740
-58 -201 -115 -407 -127 -457 -20 -87 -23 -93 -47 -93 l-25 0 7 263 c3 144 8
305 10 357 3 52 7 158 10 235 3 77 7 165 9 195 4 46 15 326 20 498 1 24 -2 46
-6 48 -5 3 -8 -5 -9 -18 0 -13 -2 -32 -5 -43 -2 -11 -6 -40 -9 -65 -4 -25 -8
-56 -11 -70 -2 -14 -7 -41 -10 -60 -13 -89 -57 -357 -60 -375 -2 -11 -7 -40
-10 -65 -3 -25 -8 -47 -9 -50 -2 -3 -6 -26 -9 -50 -4 -25 -9 -56 -11 -70 -3
-14 -7 -41 -10 -60 -3 -19 -8 -42 -10 -50 -2 -8 -7 -40 -10 -70 -13 -124 -26
-213 -56 -388 -10 -63 -19 -118 -19 -123 0 -5 -11 -9 -25 -9 -20 0 -25 5 -26
28 0 15 -2 35 -4 45 -2 9 -6 59 -10 110 -3 50 -8 110 -10 132 -5 45 -12 149
-20 270 -3 44 -7 109 -10 145 -3 36 -8 94 -11 130 -5 73 -15 172 -19 210 -2
14 -6 68 -10 120 -3 52 -8 106 -10 120 -4 26 -17 211 -19 268 -1 28 -3 38 -7
30z"/>
<path d="M353 2233 c-32 -75 -111 -278 -110 -279 1 -1 45 -5 97 -8 52 -4 109
-9 125 -11 17 -2 59 -7 95 -10 36 -3 79 -8 95 -10 33 -5 88 -11 180 -20 33 -3
74 -8 90 -10 17 -2 77 -9 135 -15 58 -6 121 -13 140 -15 19 -2 64 -7 100 -10
36 -4 76 -8 90 -10 14 -2 54 -7 90 -10 36 -3 81 -8 100 -10 19 -2 82 -9 140
-15 58 -6 121 -13 140 -15 102 -12 140 -16 190 -20 30 -3 71 -7 90 -10 19 -2
62 -7 95 -10 33 -3 71 -8 85 -10 14 -2 57 -6 95 -10 39 -3 81 -8 95 -10 24 -4
75 -9 198 -20 31 -3 73 -8 92 -10 195 -26 271 -31 378 -26 73 3 7 45 -153 99
-478 160 -858 265 -1145 316 -19 3 -46 8 -60 11 -52 10 -198 35 -270 45 -41 7
-102 15 -135 20 -33 5 -85 12 -115 15 -30 3 -82 10 -115 15 -65 10 -120 17
-205 25 -72 7 -147 15 -190 20 -19 2 -66 7 -103 10 -37 4 -76 8 -85 9 -9 2
-57 7 -107 10 -49 4 -98 10 -108 12 -13 4 -22 -4 -34 -33z"/>
<path d="M6619 2266 c-4 -3 -46 -8 -204 -22 -89 -8 -359 -34 -395 -39 -19 -2
-60 -7 -90 -10 -30 -3 -82 -10 -115 -15 -33 -5 -78 -11 -100 -14 -22 -3 -89
-12 -150 -21 -60 -8 -128 -18 -150 -21 -54 -7 -95 -13 -125 -19 -14 -3 -41 -7
-60 -9 -92 -12 -314 -62 -700 -160 -8 -2 -42 -12 -75 -22 -33 -10 -62 -18 -65
-19 -65 -12 -457 -149 -547 -190 -74 -34 -83 -41 -60 -43 69 -7 153 -8 202 -2
33 5 87 11 120 14 33 4 76 9 95 11 19 2 80 9 135 15 55 6 120 13 145 16 25 2
65 6 90 9 25 2 65 7 90 10 45 5 79 8 200 20 36 3 81 8 100 10 19 2 58 7 85 9
28 3 88 10 135 16 47 5 110 12 140 15 217 22 252 25 290 30 19 2 58 7 85 9 28
3 113 12 190 21 77 8 165 17 195 20 64 6 144 15 180 20 14 2 61 7 105 10 44 4
89 9 100 11 11 2 49 7 85 10 36 4 76 8 90 9 14 2 44 3 68 4 28 1 42 5 42 14 0
17 -108 289 -119 300 -4 4 -9 6 -12 3z"/>
<path d="M189 1823 c-38 -101 -78 -227 -74 -231 3 -4 83 -7 178 -8 95 -1 228
-5 297 -9 69 -3 292 -8 495 -10 204 -2 480 -6 615 -9 695 -17 1351 -25 1382
-18 15 4 58 59 58 75 0 2 -30 5 -67 6 -38 1 -84 3 -103 5 -19 2 -73 7 -120 11
-47 3 -101 8 -120 10 -19 2 -71 6 -115 9 -84 7 -135 11 -250 21 -126 11 -159
14 -240 20 -44 3 -102 8 -130 10 -27 2 -77 7 -110 10 -33 3 -91 7 -130 10 -38
3 -90 7 -115 10 -25 2 -81 7 -125 10 -44 3 -100 8 -125 10 -25 3 -76 7 -115
10 -38 3 -92 7 -120 10 -27 3 -79 7 -115 10 -134 11 -196 16 -240 20 -25 2
-79 6 -120 10 -158 13 -196 16 -240 20 -25 3 -89 7 -143 10 l-97 6 -11 -28z"/>
<path d="M6667 1844 c-1 -1 -45 -5 -97 -9 -52 -4 -113 -8 -135 -10 -22 -2 -71
-6 -110 -9 -38 -4 -88 -8 -110 -11 -22 -2 -80 -7 -130 -10 -49 -3 -106 -8
-125 -10 -35 -5 -89 -9 -230 -20 -100 -8 -175 -14 -232 -20 -26 -3 -88 -7
-138 -11 -50 -3 -99 -7 -109 -9 -10 -2 -63 -6 -117 -10 -55 -4 -110 -8 -124
-10 -14 -2 -65 -7 -115 -10 -49 -4 -101 -8 -115 -10 -14 -2 -70 -7 -125 -11
-55 -3 -108 -8 -117 -10 -10 -1 -61 -6 -115 -9 -54 -4 -109 -8 -123 -10 -14
-2 -68 -7 -120 -10 -52 -4 -108 -9 -125 -11 -16 -2 -68 -6 -115 -9 -47 -4 -86
-8 -88 -10 -8 -8 29 -63 45 -67 37 -8 796 0 1508 17 110 3 292 7 405 10 182 4
468 10 922 19 82 1 150 5 153 8 5 4 -20 80 -77 231 -10 27 -12 28 -75 25 -35
-1 -65 -3 -66 -4z"/>
<path d="M55 1460 c-3 -5 -17 -38 -30 -74 l-25 -66 28 -1 c219 -5 2997 2 3002
8 12 13 38 133 31 138 -15 9 -3000 4 -3006 -5z"/>
<path d="M3934 1417 c14 -106 0 -97 155 -98 453 -1 2905 2 2907 4 2 2 -9 35
-24 75 l-26 71 -1509 0 -1509 0 6 -52z"/>
</g>
</svg>
